<?xml version="1.0" encoding="utf-8"?>
<!-- Generator: Adobe Illustrator 28.2.0, SVG Export Plug-In . SVG Version: 6.00 Build 0)  -->
<svg version="1.1" id="Layer_1" xmlns="http://www.w3.org/2000/svg" xmlns:xlink="http://www.w3.org/1999/xlink" x="0px" y="0px"
	 viewBox="0 0 291 593" style="enable-background:new 0 0 291 593;" xml:space="preserve">
<style type="text/css">
	.st0{fill-rule:evenodd;clip-rule:evenodd;fill:#082D8B;fill-opacity:0.12;}
	.st1{opacity:0.947;fill-rule:evenodd;clip-rule:evenodd;fill:url(#SVGID_1_);enable-background:new    ;}
</style>
<g>
	<path class="st0" d="M425.5-551.8c-17.4,368.8-113,604.4-287,706.7C-122.5,308.4,26.7,442.3,261.8,575
		c235.1,132.8,295,236.1,242.8,331.8s-247.6,448.2,728,172.8l153.9-1253.8L425.5-551.8L425.5-551.8z"/>
	
		<linearGradient id="SVGID_1_" gradientUnits="userSpaceOnUse" x1="-812.2779" y1="712.9974" x2="-813.1205" y2="712.1342" gradientTransform="matrix(1285.0044 112.4233 122.6015 -1401.342 957839.9375 1090250.75)">
		<stop  offset="0" style="stop-color:#A9A9FF"/>
		<stop  offset="1" style="stop-color:#37378C"/>
	</linearGradient>
	<path class="st1" d="M402.2-271.2c0.6,188.1-82.1,335-248.3,440.8C-95.4,328.2,37.3,460.9,271.1,582.4S498.1,805,450.5,900.1
		c-47.6,95.1-139.9,442.6,802.4,140.7l107.4-1228.1L402.2-271.2L402.2-271.2z"/>
</g>
</svg>
